# xmcd
#
# Track frame offsets:
#	150
#	22787
#	40323
#	52132
#	64256
#	79660
#	92896
#	109471
#	127788
#	143182
#	158053
#	173357
#	191926
#
# Disc length: 2768 seconds
# Revision: 1
# Processed by: cddbd v1.5.2PL0 Copyright (c) Steve Scherf et al.
# Submitted via: dBpowerAMP V12.0
#
DISCID=ac0ace0d
DTITLE=The Carter Family III - Past and Present
DYEAR=2010
DGENRE=Country
TTITLE0=Maybelle's Guitar
TTITLE1=Nowhere Train
TTITLE2=The Sun of the Soul
TTITLE3=Anabelle's Song (Forever 'Cross the Sky)
TTITLE4=Let It Go
TTITLE5=Bury Me Beneath the Willow
TTITLE6=In Between
TTITLE7=Darkly Through the Glass
TTITLE8=Sea of Galilee
TTITLE9=Revelation
TTITLE10=I Will Never Marry
TTITLE11=Rye Cove
TTITLE12=Farther On
EXTD=
EXTT0=
EXTT1=
EXTT2=
EXTT3=
EXTT4=
EXTT5=
EXTT6=
EXTT7=
EXTT8=
EXTT9=
EXTT10=
EXTT11=
EXTT12=
PLAYORDER=
